<?xml version="1.0" encoding="UTF-8"?>
<svg id="Layer_1" data-name="Layer 1" xmlns="http://www.w3.org/2000/svg" viewBox="0 0 522.67 140">
  <defs>
    <style>
      .cls-1 {
        fill: #faef8a;
      }
    </style>
  </defs>
  <polygon class="cls-1" points="304 0 298.67 0 293.33 0 288 0 282.67 0 277.33 0 272 0 266.67 0 266.67 5.19 266.67 10.37 266.67 15.56 266.67 20.74 266.67 25.93 266.67 31.11 266.67 36.3 266.67 41.48 266.67 46.67 266.67 51.85 266.67 57.04 266.67 62.22 266.67 67.41 266.67 72.59 266.67 77.78 266.67 82.96 266.67 88.15 266.67 93.33 266.67 98.52 266.67 103.7 266.67 108.89 266.67 114.07 266.67 119.26 266.67 124.44 266.67 129.63 266.67 134.82 272 134.82 277.33 134.82 282.67 134.82 288 134.82 293.33 134.82 298.67 134.82 304 134.82 309.33 134.82 314.67 134.82 314.67 129.63 314.67 124.44 314.67 119.26 309.33 119.26 304 119.26 298.67 119.26 293.33 119.26 288 119.26 288 114.07 288 108.89 288 103.7 288 98.52 288 93.33 288 88.15 288 82.96 288 77.78 293.33 77.78 298.67 77.78 304 77.78 309.33 77.78 314.67 77.78 314.67 72.59 314.67 67.41 314.67 62.22 314.67 57.04 309.33 57.04 304 57.04 298.67 57.04 293.33 57.04 288 57.04 288 51.85 288 46.67 288 41.48 288 36.3 288 31.11 288 25.93 288 20.74 293.33 20.74 298.67 20.74 304 20.74 309.33 20.74 314.67 20.74 314.67 15.56 314.67 10.37 314.67 5.19 314.67 0 309.33 0 304 0"/>
  <polygon class="cls-1" points="517.33 0 512 0 506.67 0 501.33 0 501.33 5.19 501.33 10.37 501.33 15.56 501.33 20.74 501.33 25.93 501.33 31.11 501.33 36.3 501.33 41.48 501.33 46.67 501.33 51.85 501.33 57.04 501.33 62.22 501.33 67.41 501.33 72.59 496 72.59 496 67.41 496 62.22 496 57.04 490.67 57.04 490.67 51.85 490.67 46.67 490.67 41.48 485.33 41.48 485.33 36.3 485.33 31.11 485.33 25.93 480 25.93 480 20.74 480 15.56 480 10.37 474.67 10.37 474.67 5.19 474.67 0 469.33 0 464 0 458.67 0 458.67 5.19 453.33 5.19 453.33 10.37 453.33 15.56 453.33 20.74 453.33 25.93 453.33 31.11 453.33 36.3 453.33 41.48 453.33 46.67 453.33 51.85 453.33 57.04 453.33 62.22 453.33 67.41 453.33 72.59 453.33 77.78 453.33 82.96 453.33 88.15 453.33 93.33 453.33 98.52 453.33 103.7 453.33 108.89 453.33 114.07 453.33 119.26 453.33 124.44 453.33 129.63 453.33 134.82 458.67 134.82 464 134.82 469.33 134.82 474.67 134.82 474.67 129.63 474.67 124.44 474.67 119.26 474.67 114.07 474.67 108.89 474.67 103.7 474.67 98.52 474.67 93.33 474.67 88.15 474.67 82.96 474.67 77.78 474.67 72.59 474.67 67.41 474.67 62.22 480 62.22 480 67.41 480 72.59 480 77.78 485.33 77.78 485.33 82.96 485.33 88.15 485.33 93.33 490.67 93.33 490.67 98.52 490.67 103.7 490.67 108.89 496 108.89 496 114.07 496 119.26 496 124.44 501.33 124.44 501.33 129.63 501.33 134.82 506.67 134.82 512 134.82 517.33 134.82 522.67 134.82 522.67 129.63 522.67 124.44 522.67 119.26 522.67 114.07 522.67 108.89 522.67 103.7 522.67 98.52 522.67 93.33 522.67 88.15 522.67 82.96 522.67 77.78 522.67 72.59 522.67 67.41 522.67 62.22 522.67 57.04 522.67 51.85 522.67 46.67 522.67 41.48 522.67 36.3 522.67 31.11 522.67 25.93 522.67 20.74 522.67 15.56 522.67 10.37 522.67 5.19 522.67 0 517.33 0"/>
  <path class="cls-1" d="m432,15.56v-5.19h-5.33v-5.19h-10.67V0h-26.67v5.19h-10.67v5.19h-5.33v15.56h-5.33v88.15h5.33v10.37h5.33v5.19h5.33v5.18h10.67v5.18h21.33v-5.18h10.67v-5.18h5.33v-15.56h5.33V20.74h-5.33v-5.19Zm-16,93.33v5.18h-5.33v5.18h-16v-5.18h-5.33V25.93h5.33v-5.19h16v5.19h5.33v82.96Z"/>
  <polygon class="cls-1" points="64 67.41 58.67 67.41 53.33 67.41 48 67.41 42.67 67.41 37.33 67.41 37.33 72.59 37.33 77.78 37.33 82.96 42.67 82.96 48 82.96 53.33 82.96 53.33 88.15 53.33 93.33 53.33 98.52 53.33 103.7 53.33 108.89 48 108.89 48 114.07 48 119.26 42.67 119.26 37.33 119.26 32 119.26 32 114.07 26.67 114.07 26.67 108.89 26.67 103.7 21.33 103.7 21.33 98.52 21.33 93.33 21.33 88.15 21.33 82.96 21.33 77.78 21.33 72.59 21.33 67.41 21.33 62.22 21.33 57.04 21.33 51.85 21.33 46.67 21.33 41.48 21.33 36.3 26.67 36.3 26.67 31.11 26.67 25.93 26.67 20.74 32 20.74 37.33 20.74 42.67 20.74 48 20.74 48 25.93 48 31.11 53.33 31.11 58.67 31.11 64 31.11 69.33 31.11 69.33 25.93 69.33 20.74 69.33 15.56 64 15.56 64 10.37 58.67 10.37 58.67 5.19 53.33 5.19 53.33 0 48 0 42.67 0 37.33 0 32 0 26.67 0 21.33 0 21.33 5.19 16 5.19 16 10.37 10.67 10.37 10.67 15.56 5.33 15.56 5.33 20.74 5.33 25.93 5.33 31.11 5.33 36.3 0 36.3 0 41.48 0 46.67 0 51.85 0 57.04 0 62.22 0 67.41 0 72.59 0 77.78 0 82.96 0 88.15 0 93.33 0 98.52 0 103.7 5.33 103.7 5.33 108.89 5.33 114.07 5.33 119.26 10.67 119.26 10.67 124.44 10.67 129.63 16 129.63 16 134.82 21.33 134.82 26.67 134.82 26.67 140 32 140 37.33 140 42.67 140 48 140 48 134.82 53.33 134.82 58.67 134.82 58.67 129.63 64 129.63 64 124.44 64 119.26 69.33 119.26 69.33 114.07 69.33 108.89 69.33 103.7 69.33 98.52 69.33 93.33 69.33 88.15 69.33 82.96 69.33 77.78 74.67 77.78 74.67 72.59 74.67 67.41 69.33 67.41 64 67.41"/>
  <polygon class="cls-1" points="245.33 82.96 245.33 77.78 245.33 72.59 245.33 67.41 245.33 62.22 245.33 57.04 245.33 51.85 245.33 46.67 245.33 41.48 245.33 36.3 245.33 31.11 240 31.11 240 25.93 240 20.74 240 15.56 240 10.37 240 5.19 240 0 234.67 0 229.33 0 224 0 224 5.19 218.67 5.19 218.67 10.37 218.67 15.56 218.67 20.74 218.67 25.93 218.67 31.11 213.33 31.11 213.33 36.3 213.33 41.48 213.33 46.67 213.33 51.85 213.33 57.04 208 57.04 208 62.22 208 67.41 208 72.59 208 77.78 208 82.96 208 88.15 202.67 88.15 202.67 82.96 202.67 77.78 202.67 72.59 202.67 67.41 202.67 62.22 197.33 62.22 197.33 57.04 197.33 51.85 197.33 46.67 197.33 41.48 197.33 36.3 192 36.3 192 31.11 192 25.93 192 20.74 192 15.56 186.67 15.56 186.67 10.37 186.67 5.19 186.67 0 181.33 0 176 0 170.67 0 170.67 5.19 170.67 10.37 165.33 10.37 165.33 15.56 165.33 20.74 165.33 25.93 165.33 31.11 165.33 36.3 165.33 41.48 165.33 46.67 165.33 51.85 165.33 57.04 165.33 62.22 165.33 67.41 165.33 72.59 160 72.59 160 77.78 160 82.96 160 88.15 160 93.33 160 98.52 160 103.7 160 108.89 160 114.07 160 119.26 160 124.44 160 129.63 160 134.82 165.33 134.82 170.67 134.82 176 134.82 176 129.63 176 124.44 176 119.26 176 114.07 176 108.89 181.33 108.89 181.33 103.7 181.33 98.52 181.33 93.33 181.33 88.15 181.33 82.96 181.33 77.78 181.33 72.59 186.67 72.59 186.67 77.78 186.67 82.96 186.67 88.15 186.67 93.33 186.67 98.52 192 98.52 192 103.7 192 108.89 192 114.07 192 119.26 197.33 119.26 197.33 124.44 197.33 129.63 197.33 134.82 202.67 134.82 208 134.82 213.33 134.82 213.33 129.63 213.33 124.44 213.33 119.26 218.67 119.26 218.67 114.07 218.67 108.89 218.67 103.7 218.67 98.52 218.67 93.33 224 93.33 224 88.15 224 82.96 224 77.78 224 72.59 224 67.41 229.33 67.41 229.33 72.59 229.33 77.78 229.33 82.96 229.33 88.15 229.33 93.33 229.33 98.52 229.33 103.7 229.33 108.89 229.33 114.07 229.33 119.26 229.33 124.44 234.67 124.44 234.67 129.63 234.67 134.82 240 134.82 245.33 134.82 250.67 134.82 250.67 129.63 250.67 124.44 250.67 119.26 250.67 114.07 250.67 108.89 250.67 103.7 250.67 98.52 250.67 93.33 250.67 88.15 245.33 88.15 245.33 82.96"/>
  <path class="cls-1" d="m149.33,124.44v-20.74h-5.33v-25.93h-5.33v-20.74h-5.33v-25.93h-5.33V5.19h-5.33V0h-16v20.74h-5.33v20.74h-5.33v25.93h-5.33v20.74h-5.33v25.93h-5.33v20.74h21.33v-25.93h26.67v15.55h5.33v10.37h21.33v-5.18h-5.33v-5.19Zm-32-77.78v20.74h5.33v25.93h-16v-15.56h5.33v-31.11h5.33Z"/>
</svg>