<svg width="612" height="124" viewBox="0 0 612 124" fill="none" xmlns="http://www.w3.org/2000/svg">
<path d="M460 0H464V4H460V0Z" fill="white"/>
<path d="M464 0H468V4H464V0Z" fill="white"/>
<path d="M460 4H464V8H460V4Z" fill="white"/>
<path d="M464 4H468V8H464V4Z" fill="white"/>
<path d="M496 4H500V8H496V4Z" fill="white"/>
<path d="M500 4H504V8H500V4Z" fill="white"/>
<path d="M504 4H508V8H504V4Z" fill="white"/>
<path d="M460 8H464V12H460V8Z" fill="white"/>
<path d="M464 8H468V12H464V8Z" fill="white"/>
<path d="M496 8H500V12H496V8Z" fill="white"/>
<path d="M500 8H504V12H500V8Z" fill="white"/>
<path d="M504 8H508V12H504V8Z" fill="white"/>
<path d="M68 12H72V16H68V12Z" fill="white"/>
<path d="M460 12H464V16H460V12Z" fill="white"/>
<path d="M464 12H468V16H464V12Z" fill="white"/>
<path d="M496 12H500V16H496V12Z" fill="white"/>
<path d="M500 12H504V16H500V12Z" fill="white"/>
<path d="M504 12H508V16H504V12Z" fill="white"/>
<path d="M64 16H68V20H64V16Z" fill="white"/>
<path d="M68 16H72V20H68V16Z" fill="white"/>
<path d="M72 16H76V20H72V16Z" fill="white"/>
<path d="M460 16H464V20H460V16Z" fill="white"/>
<path d="M464 16H468V20H464V16Z" fill="white"/>
<path d="M60 20H64V24H60V20Z" fill="white"/>
<path d="M64 20H68V24H64V20Z" fill="white"/>
<path d="M68 20H72V24H68V20Z" fill="white"/>
<path d="M72 20H76V24H72V20Z" fill="white"/>
<path d="M460 20H464V24H460V20Z" fill="white"/>
<path d="M464 20H468V24H464V20Z" fill="white"/>
<path d="M60 24H64V28H60V24Z" fill="white"/>
<path d="M64 24H68V28H64V24Z" fill="white"/>
<path d="M68 24H72V28H68V24Z" fill="white"/>
<path d="M72 24H76V28H72V24Z" fill="white"/>
<path d="M76 24H80V28H76V24Z" fill="white"/>
<path d="M460 24H464V28H460V24Z" fill="white"/>
<path d="M464 24H468V28H464V24Z" fill="white"/>
<path d="M56 28H60V32H56V28Z" fill="white"/>
<path d="M60 28H64V32H60V28Z" fill="white"/>
<path d="M64 28H68V32H64V28Z" fill="white"/>
<path d="M68 28H72V32H68V28Z" fill="white"/>
<path d="M72 28H76V32H72V28Z" fill="white"/>
<path d="M76 28H80V32H76V28Z" fill="white"/>
<path d="M460 28H464V32H460V28Z" fill="white"/>
<path d="M464 28H468V32H464V28Z" fill="white"/>
<path d="M52 32H56V36H52V32Z" fill="white"/>
<path d="M56 32H60V36H56V32Z" fill="white"/>
<path d="M60 32H64V36H60V32Z" fill="white"/>
<path d="M64 32H68V36H64V32Z" fill="white"/>
<path d="M68 32H72V36H68V32Z" fill="white"/>
<path d="M72 32H76V36H72V32Z" fill="white"/>
<path d="M76 32H80V36H76V32Z" fill="white"/>
<path d="M80 32H84V36H80V32Z" fill="white"/>
<path d="M460 32H464V36H460V32Z" fill="white"/>
<path d="M464 32H468V36H464V32Z" fill="white"/>
<path d="M52 36H56V40H52V36Z" fill="white"/>
<path d="M56 36H60V40H56V36Z" fill="white"/>
<path d="M60 36H64V40H60V36Z" fill="white"/>
<path d="M64 36H68V40H64V36Z" fill="white"/>
<path d="M68 36H72V40H68V36Z" fill="white"/>
<path d="M72 36H76V40H72V36Z" fill="white"/>
<path d="M76 36H80V40H76V36Z" fill="white"/>
<path d="M80 36H84V40H80V36Z" fill="white"/>
<path d="M168 36H172V40H168V36Z" fill="white"/>
<path d="M172 36H176V40H172V36Z" fill="white"/>
<path d="M176 36H180V40H176V36Z" fill="white"/>
<path d="M180 36H184V40H180V36Z" fill="white"/>
<path d="M220 36H224V40H220V36Z" fill="white"/>
<path d="M224 36H228V40H224V36Z" fill="white"/>
<path d="M228 36H232V40H228V36Z" fill="white"/>
<path d="M232 36H236V40H232V36Z" fill="white"/>
<path d="M236 36H240V40H236V36Z" fill="white"/>
<path d="M240 36H244V40H240V36Z" fill="white"/>
<path d="M244 36H248V40H244V36Z" fill="white"/>
<path d="M308 36H312V40H308V36Z" fill="white"/>
<path d="M312 36H316V40H312V36Z" fill="white"/>
<path d="M316 36H320V40H316V36Z" fill="white"/>
<path d="M320 36H324V40H320V36Z" fill="white"/>
<path d="M324 36H328V40H324V36Z" fill="white"/>
<path d="M328 36H332V40H328V36Z" fill="white"/>
<path d="M412 36H416V40H412V36Z" fill="white"/>
<path d="M416 36H420V40H416V36Z" fill="white"/>
<path d="M420 36H424V40H420V36Z" fill="white"/>
<path d="M424 36H428V40H424V36Z" fill="white"/>
<path d="M428 36H432V40H428V36Z" fill="white"/>
<path d="M432 36H436V40H432V36Z" fill="white"/>
<path d="M460 36H464V40H460V36Z" fill="white"/>
<path d="M464 36H468V40H464V36Z" fill="white"/>
<path d="M556 36H560V40H556V36Z" fill="white"/>
<path d="M560 36H564V40H560V36Z" fill="white"/>
<path d="M564 36H568V40H564V36Z" fill="white"/>
<path d="M568 36H572V40H568V36Z" fill="white"/>
<path d="M572 36H576V40H572V36Z" fill="white"/>
<path d="M576 36H580V40H576V36Z" fill="white"/>
<path d="M48 40H52V44H48V40Z" fill="white"/>
<path d="M52 40H56V44H52V40Z" fill="white"/>
<path d="M56 40H60V44H56V40Z" fill="white"/>
<path d="M60 40H64V44H60V40Z" fill="white"/>
<path d="M72 40H76V44H72V40Z" fill="white"/>
<path d="M76 40H80V44H76V40Z" fill="white"/>
<path d="M80 40H84V44H80V40Z" fill="white"/>
<path d="M84 40H88V44H84V40Z" fill="white"/>
<path d="M144 40H148V44H144V40Z" fill="white"/>
<path d="M148 40H152V44H148V40Z" fill="white"/>
<path d="M164 40H168V44H164V40Z" fill="white"/>
<path d="M168 40H172V44H168V40Z" fill="white"/>
<path d="M172 40H176V44H172V40Z" fill="white"/>
<path d="M176 40H180V44H176V40Z" fill="white"/>
<path d="M180 40H184V44H180V40Z" fill="white"/>
<path d="M212 40H216V44H212V40Z" fill="white"/>
<path d="M216 40H220V44H216V40Z" fill="white"/>
<path d="M220 40H224V44H220V40Z" fill="white"/>
<path d="M224 40H228V44H224V40Z" fill="white"/>
<path d="M228 40H232V44H228V40Z" fill="white"/>
<path d="M232 40H236V44H232V40Z" fill="white"/>
<path d="M236 40H240V44H236V40Z" fill="white"/>
<path d="M240 40H244V44H240V40Z" fill="white"/>
<path d="M244 40H248V44H244V40Z" fill="white"/>
<path d="M248 40H252V44H248V40Z" fill="white"/>
<path d="M252 40H256V44H252V40Z" fill="white"/>
<path d="M256 40H260V44H256V40Z" fill="white"/>
<path d="M296 40H300V44H296V40Z" fill="white"/>
<path d="M300 40H304V44H300V40Z" fill="white"/>
<path d="M304 40H308V44H304V40Z" fill="white"/>
<path d="M308 40H312V44H308V40Z" fill="white"/>
<path d="M312 40H316V44H312V40Z" fill="white"/>
<path d="M316 40H320V44H316V40Z" fill="white"/>
<path d="M320 40H324V44H320V40Z" fill="white"/>
<path d="M324 40H328V44H324V40Z" fill="white"/>
<path d="M328 40H332V44H328V40Z" fill="white"/>
<path d="M332 40H336V44H332V40Z" fill="white"/>
<path d="M336 40H340V44H336V40Z" fill="white"/>
<path d="M352 40H356V44H352V40Z" fill="white"/>
<path d="M356 40H360V44H356V40Z" fill="white"/>
<path d="M360 40H364V44H360V40Z" fill="white"/>
<path d="M404 40H408V44H404V40Z" fill="white"/>
<path d="M408 40H412V44H408V40Z" fill="white"/>
<path d="M412 40H416V44H412V40Z" fill="white"/>
<path d="M416 40H420V44H416V40Z" fill="white"/>
<path d="M420 40H424V44H420V40Z" fill="white"/>
<path d="M424 40H428V44H424V40Z" fill="white"/>
<path d="M428 40H432V44H428V40Z" fill="white"/>
<path d="M432 40H436V44H432V40Z" fill="white"/>
<path d="M436 40H440V44H436V40Z" fill="white"/>
<path d="M440 40H444V44H440V40Z" fill="white"/>
<path d="M444 40H448V44H444V40Z" fill="white"/>
<path d="M460 40H464V44H460V40Z" fill="white"/>
<path d="M464 40H468V44H464V40Z" fill="white"/>
<path d="M496 40H500V44H496V40Z" fill="white"/>
<path d="M500 40H504V44H500V40Z" fill="white"/>
<path d="M504 40H508V44H504V40Z" fill="white"/>
<path d="M548 40H552V44H548V40Z" fill="white"/>
<path d="M552 40H556V44H552V40Z" fill="white"/>
<path d="M556 40H560V44H556V40Z" fill="white"/>
<path d="M560 40H564V44H560V40Z" fill="white"/>
<path d="M564 40H568V44H564V40Z" fill="white"/>
<path d="M568 40H572V44H568V40Z" fill="white"/>
<path d="M572 40H576V44H572V40Z" fill="white"/>
<path d="M576 40H580V44H576V40Z" fill="white"/>
<path d="M580 40H584V44H580V40Z" fill="white"/>
<path d="M584 40H588V44H584V40Z" fill="white"/>
<path d="M588 40H592V44H588V40Z" fill="white"/>
<path d="M604 40H608V44H604V40Z" fill="white"/>
<path d="M608 40H612V44H608V40Z" fill="white"/>
<path d="M48 44H52V48H48V44Z" fill="white"/>
<path d="M52 44H56V48H52V44Z" fill="white"/>
<path d="M56 44H60V48H56V44Z" fill="white"/>
<path d="M60 44H64V48H60V44Z" fill="white"/>
<path d="M72 44H76V48H72V44Z" fill="white"/>
<path d="M76 44H80V48H76V44Z" fill="white"/>
<path d="M80 44H84V48H80V44Z" fill="white"/>
<path d="M84 44H88V48H84V44Z" fill="white"/>
<path d="M88 44H92V48H88V44Z" fill="white"/>
<path d="M144 44H148V48H144V44Z" fill="white"/>
<path d="M148 44H152V48H148V44Z" fill="white"/>
<path d="M160 44H164V48H160V44Z" fill="white"/>
<path d="M164 44H168V48H164V44Z" fill="white"/>
<path d="M168 44H172V48H168V44Z" fill="white"/>
<path d="M204 44H208V48H204V44Z" fill="white"/>
<path d="M208 44H212V48H208V44Z" fill="white"/>
<path d="M212 44H216V48H212V44Z" fill="white"/>
<path d="M216 44H220V48H216V44Z" fill="white"/>
<path d="M220 44H224V48H220V44Z" fill="white"/>
<path d="M248 44H252V48H248V44Z" fill="white"/>
<path d="M252 44H256V48H252V44Z" fill="white"/>
<path d="M256 44H260V48H256V44Z" fill="white"/>
<path d="M260 44H264V48H260V44Z" fill="white"/>
<path d="M292 44H296V48H292V44Z" fill="white"/>
<path d="M296 44H300V48H296V44Z" fill="white"/>
<path d="M300 44H304V48H300V44Z" fill="white"/>
<path d="M304 44H308V48H304V44Z" fill="white"/>
<path d="M332 44H336V48H332V44Z" fill="white"/>
<path d="M336 44H340V48H336V44Z" fill="white"/>
<path d="M340 44H344V48H340V44Z" fill="white"/>
<path d="M352 44H356V48H352V44Z" fill="white"/>
<path d="M356 44H360V48H356V44Z" fill="white"/>
<path d="M360 44H364V48H360V44Z" fill="white"/>
<path d="M396 44H400V48H396V44Z" fill="white"/>
<path d="M400 44H404V48H400V44Z" fill="white"/>
<path d="M404 44H408V48H404V44Z" fill="white"/>
<path d="M408 44H412V48H408V44Z" fill="white"/>
<path d="M412 44H416V48H412V44Z" fill="white"/>
<path d="M436 44H440V48H436V44Z" fill="white"/>
<path d="M440 44H444V48H440V44Z" fill="white"/>
<path d="M444 44H448V48H444V44Z" fill="white"/>
<path d="M448 44H452V48H448V44Z" fill="white"/>
<path d="M460 44H464V48H460V44Z" fill="white"/>
<path d="M464 44H468V48H464V44Z" fill="white"/>
<path d="M496 44H500V48H496V44Z" fill="white"/>
<path d="M500 44H504V48H500V44Z" fill="white"/>
<path d="M504 44H508V48H504V44Z" fill="white"/>
<path d="M544 44H548V48H544V44Z" fill="white"/>
<path d="M548 44H552V48H548V44Z" fill="white"/>
<path d="M552 44H556V48H552V44Z" fill="white"/>
<path d="M556 44H560V48H556V44Z" fill="white"/>
<path d="M584 44H588V48H584V44Z" fill="white"/>
<path d="M588 44H592V48H588V44Z" fill="white"/>
<path d="M592 44H596V48H592V44Z" fill="white"/>
<path d="M604 44H608V48H604V44Z" fill="white"/>
<path d="M608 44H612V48H608V44Z" fill="white"/>
<path d="M44 48H48V52H44V48Z" fill="white"/>
<path d="M48 48H52V52H48V48Z" fill="white"/>
<path d="M52 48H56V52H52V48Z" fill="white"/>
<path d="M56 48H60V52H56V48Z" fill="white"/>
<path d="M76 48H80V52H76V48Z" fill="white"/>
<path d="M80 48H84V52H80V48Z" fill="white"/>
<path d="M84 48H88V52H84V48Z" fill="white"/>
<path d="M88 48H92V52H88V48Z" fill="white"/>
<path d="M144 48H148V52H144V48Z" fill="white"/>
<path d="M148 48H152V52H148V48Z" fill="white"/>
<path d="M156 48H160V52H156V48Z" fill="white"/>
<path d="M160 48H164V52H160V48Z" fill="white"/>
<path d="M200 48H204V52H200V48Z" fill="white"/>
<path d="M204 48H208V52H204V48Z" fill="white"/>
<path d="M208 48H212V52H208V48Z" fill="white"/>
<path d="M256 48H260V52H256V48Z" fill="white"/>
<path d="M260 48H264V52H260V48Z" fill="white"/>
<path d="M288 48H292V52H288V48Z" fill="white"/>
<path d="M292 48H296V52H292V48Z" fill="white"/>
<path d="M296 48H300V52H296V48Z" fill="white"/>
<path d="M340 48H344V52H340V48Z" fill="white"/>
<path d="M344 48H348V52H344V48Z" fill="white"/>
<path d="M352 48H356V52H352V48Z" fill="white"/>
<path d="M356 48H360V52H356V48Z" fill="white"/>
<path d="M360 48H364V52H360V48Z" fill="white"/>
<path d="M392 48H396V52H392V48Z" fill="white"/>
<path d="M396 48H400V52H396V48Z" fill="white"/>
<path d="M400 48H404V52H400V48Z" fill="white"/>
<path d="M404 48H408V52H404V48Z" fill="white"/>
<path d="M444 48H448V52H444V48Z" fill="white"/>
<path d="M448 48H452V52H448V48Z" fill="white"/>
<path d="M452 48H456V52H452V48Z" fill="white"/>
<path d="M460 48H464V52H460V48Z" fill="white"/>
<path d="M464 48H468V52H464V48Z" fill="white"/>
<path d="M496 48H500V52H496V48Z" fill="white"/>
<path d="M500 48H504V52H500V48Z" fill="white"/>
<path d="M504 48H508V52H504V48Z" fill="white"/>
<path d="M540 48H544V52H540V48Z" fill="white"/>
<path d="M544 48H548V52H544V48Z" fill="white"/>
<path d="M548 48H552V52H548V48Z" fill="white"/>
<path d="M592 48H596V52H592V48Z" fill="white"/>
<path d="M596 48H600V52H596V48Z" fill="white"/>
<path d="M604 48H608V52H604V48Z" fill="white"/>
<path d="M608 48H612V52H608V48Z" fill="white"/>
<path d="M40 52H44V56H40V52Z" fill="white"/>
<path d="M44 52H48V56H44V52Z" fill="white"/>
<path d="M48 52H52V56H48V52Z" fill="white"/>
<path d="M52 52H56V56H52V52Z" fill="white"/>
<path d="M56 52H60V56H56V52Z" fill="white"/>
<path d="M80 52H84V56H80V52Z" fill="white"/>
<path d="M84 52H88V56H84V52Z" fill="white"/>
<path d="M88 52H92V56H88V52Z" fill="white"/>
<path d="M92 52H96V56H92V52Z" fill="white"/>
<path d="M144 52H148V56H144V52Z" fill="white"/>
<path d="M148 52H152V56H148V52Z" fill="white"/>
<path d="M152 52H156V56H152V52Z" fill="white"/>
<path d="M156 52H160V56H156V52Z" fill="white"/>
<path d="M196 52H200V56H196V52Z" fill="white"/>
<path d="M200 52H204V56H200V52Z" fill="white"/>
<path d="M204 52H208V56H204V52Z" fill="white"/>
<path d="M284 52H288V56H284V52Z" fill="white"/>
<path d="M288 52H292V56H288V52Z" fill="white"/>
<path d="M292 52H296V56H292V52Z" fill="white"/>
<path d="M344 52H348V56H344V52Z" fill="white"/>
<path d="M348 52H352V56H348V52Z" fill="white"/>
<path d="M352 52H356V56H352V52Z" fill="white"/>
<path d="M356 52H360V56H356V52Z" fill="white"/>
<path d="M360 52H364V56H360V52Z" fill="white"/>
<path d="M392 52H396V56H392V52Z" fill="white"/>
<path d="M396 52H400V56H396V52Z" fill="white"/>
<path d="M452 52H456V56H452V52Z" fill="white"/>
<path d="M456 52H460V56H456V52Z" fill="white"/>
<path d="M460 52H464V56H460V52Z" fill="white"/>
<path d="M464 52H468V56H464V52Z" fill="white"/>
<path d="M496 52H500V56H496V52Z" fill="white"/>
<path d="M500 52H504V56H500V52Z" fill="white"/>
<path d="M504 52H508V56H504V52Z" fill="white"/>
<path d="M536 52H540V56H536V52Z" fill="white"/>
<path d="M540 52H544V56H540V52Z" fill="white"/>
<path d="M544 52H548V56H544V52Z" fill="white"/>
<path d="M596 52H600V56H596V52Z" fill="white"/>
<path d="M600 52H604V56H600V52Z" fill="white"/>
<path d="M604 52H608V56H604V52Z" fill="white"/>
<path d="M608 52H612V56H608V52Z" fill="white"/>
<path d="M40 56H44V60H40V56Z" fill="white"/>
<path d="M44 56H48V60H44V56Z" fill="white"/>
<path d="M48 56H52V60H48V56Z" fill="white"/>
<path d="M52 56H56V60H52V56Z" fill="white"/>
<path d="M80 56H84V60H80V56Z" fill="white"/>
<path d="M84 56H88V60H84V56Z" fill="white"/>
<path d="M88 56H92V60H88V56Z" fill="white"/>
<path d="M92 56H96V60H92V56Z" fill="white"/>
<path d="M144 56H148V60H144V56Z" fill="white"/>
<path d="M148 56H152V60H148V56Z" fill="white"/>
<path d="M152 56H156V60H152V56Z" fill="white"/>
<path d="M156 56H160V60H156V56Z" fill="white"/>
<path d="M196 56H200V60H196V56Z" fill="white"/>
<path d="M200 56H204V60H200V56Z" fill="white"/>
<path d="M280 56H284V60H280V56Z" fill="white"/>
<path d="M284 56H288V60H284V56Z" fill="white"/>
<path d="M288 56H292V60H288V56Z" fill="white"/>
<path d="M348 56H352V60H348V56Z" fill="white"/>
<path d="M352 56H356V60H352V56Z" fill="white"/>
<path d="M356 56H360V60H356V56Z" fill="white"/>
<path d="M360 56H364V60H360V56Z" fill="white"/>
<path d="M388 56H392V60H388V56Z" fill="white"/>
<path d="M392 56H396V60H392V56Z" fill="white"/>
<path d="M396 56H400V60H396V56Z" fill="white"/>
<path d="M452 56H456V60H452V56Z" fill="white"/>
<path d="M456 56H460V60H456V56Z" fill="white"/>
<path d="M460 56H464V60H460V56Z" fill="white"/>
<path d="M464 56H468V60H464V56Z" fill="white"/>
<path d="M496 56H500V60H496V56Z" fill="white"/>
<path d="M500 56H504V60H500V56Z" fill="white"/>
<path d="M504 56H508V60H504V56Z" fill="white"/>
<path d="M532 56H536V60H532V56Z" fill="white"/>
<path d="M536 56H540V60H536V56Z" fill="white"/>
<path d="M540 56H544V60H540V56Z" fill="white"/>
<path d="M600 56H604V60H600V56Z" fill="white"/>
<path d="M604 56H608V60H604V56Z" fill="white"/>
<path d="M608 56H612V60H608V56Z" fill="white"/>
<path d="M36 60H40V64H36V60Z" fill="white"/>
<path d="M40 60H44V64H40V60Z" fill="white"/>
<path d="M44 60H48V64H44V60Z" fill="white"/>
<path d="M48 60H52V64H48V60Z" fill="white"/>
<path d="M84 60H88V64H84V60Z" fill="white"/>
<path d="M88 60H92V64H88V60Z" fill="white"/>
<path d="M92 60H96V64H92V60Z" fill="white"/>
<path d="M96 60H100V64H96V60Z" fill="white"/>
<path d="M144 60H148V64H144V60Z" fill="white"/>
<path d="M148 60H152V64H148V60Z" fill="white"/>
<path d="M152 60H156V64H152V60Z" fill="white"/>
<path d="M192 60H196V64H192V60Z" fill="white"/>
<path d="M196 60H200V64H196V60Z" fill="white"/>
<path d="M200 60H204V64H200V60Z" fill="white"/>
<path d="M280 60H284V64H280V60Z" fill="white"/>
<path d="M284 60H288V64H284V60Z" fill="white"/>
<path d="M348 60H352V64H348V60Z" fill="white"/>
<path d="M352 60H356V64H352V60Z" fill="white"/>
<path d="M356 60H360V64H356V60Z" fill="white"/>
<path d="M360 60H364V64H360V60Z" fill="white"/>
<path d="M384 60H388V64H384V60Z" fill="white"/>
<path d="M388 60H392V64H388V60Z" fill="white"/>
<path d="M392 60H396V64H392V60Z" fill="white"/>
<path d="M456 60H460V64H456V60Z" fill="white"/>
<path d="M460 60H464V64H460V60Z" fill="white"/>
<path d="M464 60H468V64H464V60Z" fill="white"/>
<path d="M496 60H500V64H496V60Z" fill="white"/>
<path d="M500 60H504V64H500V60Z" fill="white"/>
<path d="M504 60H508V64H504V60Z" fill="white"/>
<path d="M532 60H536V64H532V60Z" fill="white"/>
<path d="M536 60H540V64H536V60Z" fill="white"/>
<path d="M600 60H604V64H600V60Z" fill="white"/>
<path d="M604 60H608V64H604V60Z" fill="white"/>
<path d="M608 60H612V64H608V60Z" fill="white"/>
<path d="M32 64H36V68H32V64Z" fill="white"/>
<path d="M36 64H40V68H36V64Z" fill="white"/>
<path d="M40 64H44V68H40V64Z" fill="white"/>
<path d="M44 64H48V68H44V64Z" fill="white"/>
<path d="M48 64H52V68H48V64Z" fill="white"/>
<path d="M84 64H88V68H84V64Z" fill="white"/>
<path d="M88 64H92V68H88V64Z" fill="white"/>
<path d="M92 64H96V68H92V64Z" fill="white"/>
<path d="M96 64H100V68H96V64Z" fill="white"/>
<path d="M144 64H148V68H144V64Z" fill="white"/>
<path d="M148 64H152V68H148V64Z" fill="white"/>
<path d="M152 64H156V68H152V64Z" fill="white"/>
<path d="M192 64H196V68H192V64Z" fill="white"/>
<path d="M196 64H200V68H196V64Z" fill="white"/>
<path d="M276 64H280V68H276V64Z" fill="white"/>
<path d="M280 64H284V68H280V64Z" fill="white"/>
<path d="M284 64H288V68H284V64Z" fill="white"/>
<path d="M352 64H356V68H352V64Z" fill="white"/>
<path d="M356 64H360V68H356V64Z" fill="white"/>
<path d="M360 64H364V68H360V64Z" fill="white"/>
<path d="M384 64H388V68H384V64Z" fill="white"/>
<path d="M388 64H392V68H388V64Z" fill="white"/>
<path d="M392 64H396V68H392V64Z" fill="white"/>
<path d="M460 64H464V68H460V64Z" fill="white"/>
<path d="M464 64H468V68H464V64Z" fill="white"/>
<path d="M496 64H500V68H496V64Z" fill="white"/>
<path d="M500 64H504V68H500V64Z" fill="white"/>
<path d="M504 64H508V68H504V64Z" fill="white"/>
<path d="M528 64H532V68H528V64Z" fill="white"/>
<path d="M532 64H536V68H532V64Z" fill="white"/>
<path d="M536 64H540V68H536V64Z" fill="white"/>
<path d="M604 64H608V68H604V64Z" fill="white"/>
<path d="M608 64H612V68H608V64Z" fill="white"/>
<path d="M32 68H36V72H32V68Z" fill="white"/>
<path d="M36 68H40V72H36V68Z" fill="white"/>
<path d="M40 68H44V72H40V68Z" fill="white"/>
<path d="M44 68H48V72H44V68Z" fill="white"/>
<path d="M88 68H92V72H88V68Z" fill="white"/>
<path d="M92 68H96V72H92V68Z" fill="white"/>
<path d="M96 68H100V72H96V68Z" fill="white"/>
<path d="M100 68H104V72H100V68Z" fill="white"/>
<path d="M144 68H148V72H144V68Z" fill="white"/>
<path d="M148 68H152V72H148V68Z" fill="white"/>
<path d="M152 68H156V72H152V68Z" fill="white"/>
<path d="M188 68H192V72H188V68Z" fill="white"/>
<path d="M192 68H196V72H192V68Z" fill="white"/>
<path d="M196 68H200V72H196V68Z" fill="white"/>
<path d="M276 68H280V72H276V68Z" fill="white"/>
<path d="M280 68H284V72H280V68Z" fill="white"/>
<path d="M352 68H356V72H352V68Z" fill="white"/>
<path d="M356 68H360V72H356V68Z" fill="white"/>
<path d="M360 68H364V72H360V68Z" fill="white"/>
<path d="M384 68H388V72H384V68Z" fill="white"/>
<path d="M388 68H392V72H388V68Z" fill="white"/>
<path d="M460 68H464V72H460V68Z" fill="white"/>
<path d="M464 68H468V72H464V68Z" fill="white"/>
<path d="M496 68H500V72H496V68Z" fill="white"/>
<path d="M500 68H504V72H500V68Z" fill="white"/>
<path d="M504 68H508V72H504V68Z" fill="white"/>
<path d="M528 68H532V72H528V68Z" fill="white"/>
<path d="M532 68H536V72H532V68Z" fill="white"/>
<path d="M604 68H608V72H604V68Z" fill="white"/>
<path d="M608 68H612V72H608V68Z" fill="white"/>
<path d="M28 72H32V76H28V72Z" fill="white"/>
<path d="M32 72H36V76H32V72Z" fill="white"/>
<path d="M36 72H40V76H36V72Z" fill="white"/>
<path d="M40 72H44V76H40V72Z" fill="white"/>
<path d="M88 72H92V76H88V72Z" fill="white"/>
<path d="M92 72H96V76H92V72Z" fill="white"/>
<path d="M96 72H100V76H96V72Z" fill="white"/>
<path d="M100 72H104V76H100V72Z" fill="white"/>
<path d="M104 72H108V76H104V72Z" fill="white"/>
<path d="M144 72H148V76H144V72Z" fill="white"/>
<path d="M148 72H152V76H148V72Z" fill="white"/>
<path d="M152 72H156V76H152V72Z" fill="white"/>
<path d="M188 72H192V76H188V72Z" fill="white"/>
<path d="M192 72H196V76H192V72Z" fill="white"/>
<path d="M196 72H200V76H196V72Z" fill="white"/>
<path d="M276 72H280V76H276V72Z" fill="white"/>
<path d="M280 72H284V76H280V72Z" fill="white"/>
<path d="M352 72H356V76H352V72Z" fill="white"/>
<path d="M356 72H360V76H356V72Z" fill="white"/>
<path d="M360 72H364V76H360V72Z" fill="white"/>
<path d="M384 72H388V76H384V72Z" fill="white"/>
<path d="M388 72H392V76H388V72Z" fill="white"/>
<path d="M460 72H464V76H460V72Z" fill="white"/>
<path d="M464 72H468V76H464V72Z" fill="white"/>
<path d="M496 72H500V76H496V72Z" fill="white"/>
<path d="M500 72H504V76H500V72Z" fill="white"/>
<path d="M504 72H508V76H504V72Z" fill="white"/>
<path d="M528 72H532V76H528V72Z" fill="white"/>
<path d="M532 72H536V76H532V72Z" fill="white"/>
<path d="M604 72H608V76H604V72Z" fill="white"/>
<path d="M608 72H612V76H608V72Z" fill="white"/>
<path d="M24 76H28V80H24V76Z" fill="white"/>
<path d="M28 76H32V80H28V76Z" fill="white"/>
<path d="M32 76H36V80H32V76Z" fill="white"/>
<path d="M36 76H40V80H36V76Z" fill="white"/>
<path d="M40 76H44V80H40V76Z" fill="white"/>
<path d="M92 76H96V80H92V76Z" fill="white"/>
<path d="M96 76H100V80H96V76Z" fill="white"/>
<path d="M100 76H104V80H100V76Z" fill="white"/>
<path d="M104 76H108V80H104V76Z" fill="white"/>
<path d="M144 76H148V80H144V76Z" fill="white"/>
<path d="M148 76H152V80H148V76Z" fill="white"/>
<path d="M188 76H192V80H188V76Z" fill="white"/>
<path d="M192 76H196V80H192V76Z" fill="white"/>
<path d="M276 76H280V80H276V76Z" fill="white"/>
<path d="M280 76H284V80H280V76Z" fill="white"/>
<path d="M352 76H356V80H352V76Z" fill="white"/>
<path d="M356 76H360V80H356V76Z" fill="white"/>
<path d="M360 76H364V80H360V76Z" fill="white"/>
<path d="M384 76H388V80H384V76Z" fill="white"/>
<path d="M388 76H392V80H388V76Z" fill="white"/>
<path d="M460 76H464V80H460V76Z" fill="white"/>
<path d="M464 76H468V80H464V76Z" fill="white"/>
<path d="M496 76H500V80H496V76Z" fill="white"/>
<path d="M500 76H504V80H500V76Z" fill="white"/>
<path d="M504 76H508V80H504V76Z" fill="white"/>
<path d="M528 76H532V80H528V76Z" fill="white"/>
<path d="M532 76H536V80H532V76Z" fill="white"/>
<path d="M604 76H608V80H604V76Z" fill="white"/>
<path d="M608 76H612V80H608V76Z" fill="white"/>
<path d="M24 80H28V84H24V80Z" fill="white"/>
<path d="M28 80H32V84H28V80Z" fill="white"/>
<path d="M32 80H36V84H32V80Z" fill="white"/>
<path d="M36 80H40V84H36V80Z" fill="white"/>
<path d="M96 80H100V84H96V80Z" fill="white"/>
<path d="M100 80H104V84H100V80Z" fill="white"/>
<path d="M104 80H108V84H104V80Z" fill="white"/>
<path d="M108 80H112V84H108V80Z" fill="white"/>
<path d="M144 80H148V84H144V80Z" fill="white"/>
<path d="M148 80H152V84H148V80Z" fill="white"/>
<path d="M188 80H192V84H188V80Z" fill="white"/>
<path d="M192 80H196V84H192V80Z" fill="white"/>
<path d="M276 80H280V84H276V80Z" fill="white"/>
<path d="M280 80H284V84H280V80Z" fill="white"/>
<path d="M352 80H356V84H352V80Z" fill="white"/>
<path d="M356 80H360V84H356V80Z" fill="white"/>
<path d="M360 80H364V84H360V80Z" fill="white"/>
<path d="M384 80H388V84H384V80Z" fill="white"/>
<path d="M388 80H392V84H388V80Z" fill="white"/>
<path d="M460 80H464V84H460V80Z" fill="white"/>
<path d="M464 80H468V84H464V80Z" fill="white"/>
<path d="M496 80H500V84H496V80Z" fill="white"/>
<path d="M500 80H504V84H500V80Z" fill="white"/>
<path d="M504 80H508V84H504V80Z" fill="white"/>
<path d="M528 80H532V84H528V80Z" fill="white"/>
<path d="M532 80H536V84H532V80Z" fill="white"/>
<path d="M604 80H608V84H604V80Z" fill="white"/>
<path d="M608 80H612V84H608V80Z" fill="white"/>
<path d="M20 84H24V88H20V84Z" fill="white"/>
<path d="M24 84H28V88H24V84Z" fill="white"/>
<path d="M28 84H32V88H28V84Z" fill="white"/>
<path d="M32 84H36V88H32V84Z" fill="white"/>
<path d="M96 84H100V88H96V84Z" fill="white"/>
<path d="M100 84H104V88H100V84Z" fill="white"/>
<path d="M104 84H108V88H104V84Z" fill="white"/>
<path d="M108 84H112V88H108V84Z" fill="white"/>
<path d="M144 84H148V88H144V84Z" fill="white"/>
<path d="M148 84H152V88H148V84Z" fill="white"/>
<path d="M188 84H192V88H188V84Z" fill="white"/>
<path d="M192 84H196V88H192V84Z" fill="white"/>
<path d="M196 84H200V88H196V84Z" fill="white"/>
<path d="M276 84H280V88H276V84Z" fill="white"/>
<path d="M280 84H284V88H280V84Z" fill="white"/>
<path d="M352 84H356V88H352V84Z" fill="white"/>
<path d="M356 84H360V88H356V84Z" fill="white"/>
<path d="M360 84H364V88H360V84Z" fill="white"/>
<path d="M384 84H388V88H384V84Z" fill="white"/>
<path d="M388 84H392V88H388V84Z" fill="white"/>
<path d="M460 84H464V88H460V84Z" fill="white"/>
<path d="M464 84H468V88H464V84Z" fill="white"/>
<path d="M496 84H500V88H496V84Z" fill="white"/>
<path d="M500 84H504V88H500V84Z" fill="white"/>
<path d="M504 84H508V88H504V84Z" fill="white"/>
<path d="M528 84H532V88H528V84Z" fill="white"/>
<path d="M532 84H536V88H532V84Z" fill="white"/>
<path d="M604 84H608V88H604V84Z" fill="white"/>
<path d="M608 84H612V88H608V84Z" fill="white"/>
<path d="M16 88H20V92H16V88Z" fill="white"/>
<path d="M20 88H24V92H20V88Z" fill="white"/>
<path d="M24 88H28V92H24V88Z" fill="white"/>
<path d="M28 88H32V92H28V88Z" fill="white"/>
<path d="M32 88H36V92H32V88Z" fill="white"/>
<path d="M36 88H40V92H36V88Z" fill="white"/>
<path d="M40 88H44V92H40V88Z" fill="white"/>
<path d="M44 88H48V92H44V88Z" fill="white"/>
<path d="M48 88H52V92H48V88Z" fill="white"/>
<path d="M52 88H56V92H52V88Z" fill="white"/>
<path d="M56 88H60V92H56V88Z" fill="white"/>
<path d="M60 88H64V92H60V88Z" fill="white"/>
<path d="M64 88H68V92H64V88Z" fill="white"/>
<path d="M68 88H72V92H68V88Z" fill="white"/>
<path d="M72 88H76V92H72V88Z" fill="white"/>
<path d="M76 88H80V92H76V88Z" fill="white"/>
<path d="M80 88H84V92H80V88Z" fill="white"/>
<path d="M84 88H88V92H84V88Z" fill="white"/>
<path d="M88 88H92V92H88V88Z" fill="white"/>
<path d="M100 88H104V92H100V88Z" fill="white"/>
<path d="M104 88H108V92H104V88Z" fill="white"/>
<path d="M108 88H112V92H108V88Z" fill="white"/>
<path d="M112 88H116V92H112V88Z" fill="white"/>
<path d="M144 88H148V92H144V88Z" fill="white"/>
<path d="M148 88H152V92H148V88Z" fill="white"/>
<path d="M188 88H192V92H188V88Z" fill="white"/>
<path d="M192 88H196V92H192V88Z" fill="white"/>
<path d="M196 88H200V92H196V88Z" fill="white"/>
<path d="M276 88H280V92H276V88Z" fill="white"/>
<path d="M280 88H284V92H280V88Z" fill="white"/>
<path d="M352 88H356V92H352V88Z" fill="white"/>
<path d="M356 88H360V92H356V88Z" fill="white"/>
<path d="M360 88H364V92H360V88Z" fill="white"/>
<path d="M384 88H388V92H384V88Z" fill="white"/>
<path d="M388 88H392V92H388V88Z" fill="white"/>
<path d="M460 88H464V92H460V88Z" fill="white"/>
<path d="M464 88H468V92H464V88Z" fill="white"/>
<path d="M496 88H500V92H496V88Z" fill="white"/>
<path d="M500 88H504V92H500V88Z" fill="white"/>
<path d="M504 88H508V92H504V88Z" fill="white"/>
<path d="M528 88H532V92H528V88Z" fill="white"/>
<path d="M532 88H536V92H532V88Z" fill="white"/>
<path d="M604 88H608V92H604V88Z" fill="white"/>
<path d="M608 88H612V92H608V88Z" fill="white"/>
<path d="M16 92H20V96H16V92Z" fill="white"/>
<path d="M20 92H24V96H20V92Z" fill="white"/>
<path d="M24 92H28V96H24V92Z" fill="white"/>
<path d="M28 92H32V96H28V92Z" fill="white"/>
<path d="M32 92H36V96H32V92Z" fill="white"/>
<path d="M36 92H40V96H36V92Z" fill="white"/>
<path d="M40 92H44V96H40V92Z" fill="white"/>
<path d="M44 92H48V96H44V92Z" fill="white"/>
<path d="M48 92H52V96H48V92Z" fill="white"/>
<path d="M52 92H56V96H52V92Z" fill="white"/>
<path d="M56 92H60V96H56V92Z" fill="white"/>
<path d="M60 92H64V96H60V92Z" fill="white"/>
<path d="M64 92H68V96H64V92Z" fill="white"/>
<path d="M68 92H72V96H68V92Z" fill="white"/>
<path d="M72 92H76V96H72V92Z" fill="white"/>
<path d="M76 92H80V96H76V92Z" fill="white"/>
<path d="M80 92H84V96H80V92Z" fill="white"/>
<path d="M84 92H88V96H84V92Z" fill="white"/>
<path d="M88 92H92V96H88V92Z" fill="white"/>
<path d="M92 92H96V96H92V92Z" fill="white"/>
<path d="M96 92H100V96H96V92Z" fill="white"/>
<path d="M100 92H104V96H100V92Z" fill="white"/>
<path d="M104 92H108V96H104V92Z" fill="white"/>
<path d="M108 92H112V96H108V92Z" fill="white"/>
<path d="M112 92H116V96H112V92Z" fill="white"/>
<path d="M144 92H148V96H144V92Z" fill="white"/>
<path d="M148 92H152V96H148V92Z" fill="white"/>
<path d="M192 92H196V96H192V92Z" fill="white"/>
<path d="M196 92H200V96H196V92Z" fill="white"/>
<path d="M276 92H280V96H276V92Z" fill="white"/>
<path d="M280 92H284V96H280V92Z" fill="white"/>
<path d="M284 92H288V96H284V92Z" fill="white"/>
<path d="M352 92H356V96H352V92Z" fill="white"/>
<path d="M356 92H360V96H356V92Z" fill="white"/>
<path d="M360 92H364V96H360V92Z" fill="white"/>
<path d="M384 92H388V96H384V92Z" fill="white"/>
<path d="M388 92H392V96H388V92Z" fill="white"/>
<path d="M392 92H396V96H392V92Z" fill="white"/>
<path d="M456 92H460V96H456V92Z" fill="white"/>
<path d="M460 92H464V96H460V92Z" fill="white"/>
<path d="M464 92H468V96H464V92Z" fill="white"/>
<path d="M496 92H500V96H496V92Z" fill="white"/>
<path d="M500 92H504V96H500V92Z" fill="white"/>
<path d="M504 92H508V96H504V92Z" fill="white"/>
<path d="M528 92H532V96H528V92Z" fill="white"/>
<path d="M532 92H536V96H532V92Z" fill="white"/>
<path d="M536 92H540V96H536V92Z" fill="white"/>
<path d="M604 92H608V96H604V92Z" fill="white"/>
<path d="M608 92H612V96H608V92Z" fill="white"/>
<path d="M12 96H16V100H12V96Z" fill="white"/>
<path d="M16 96H20V100H16V96Z" fill="white"/>
<path d="M20 96H24V100H20V96Z" fill="white"/>
<path d="M24 96H28V100H24V96Z" fill="white"/>
<path d="M28 96H32V100H28V96Z" fill="white"/>
<path d="M32 96H36V100H32V96Z" fill="white"/>
<path d="M36 96H40V100H36V96Z" fill="white"/>
<path d="M40 96H44V100H40V96Z" fill="white"/>
<path d="M44 96H48V100H44V96Z" fill="white"/>
<path d="M48 96H52V100H48V96Z" fill="white"/>
<path d="M52 96H56V100H52V96Z" fill="white"/>
<path d="M56 96H60V100H56V96Z" fill="white"/>
<path d="M60 96H64V100H60V96Z" fill="white"/>
<path d="M64 96H68V100H64V96Z" fill="white"/>
<path d="M68 96H72V100H68V96Z" fill="white"/>
<path d="M72 96H76V100H72V96Z" fill="white"/>
<path d="M76 96H80V100H76V96Z" fill="white"/>
<path d="M80 96H84V100H80V96Z" fill="white"/>
<path d="M84 96H88V100H84V96Z" fill="white"/>
<path d="M88 96H92V100H88V96Z" fill="white"/>
<path d="M92 96H96V100H92V96Z" fill="white"/>
<path d="M96 96H100V100H96V96Z" fill="white"/>
<path d="M100 96H104V100H100V96Z" fill="white"/>
<path d="M104 96H108V100H104V96Z" fill="white"/>
<path d="M108 96H112V100H108V96Z" fill="white"/>
<path d="M112 96H116V100H112V96Z" fill="white"/>
<path d="M116 96H120V100H116V96Z" fill="white"/>
<path d="M144 96H148V100H144V96Z" fill="white"/>
<path d="M148 96H152V100H148V96Z" fill="white"/>
<path d="M192 96H196V100H192V96Z" fill="white"/>
<path d="M196 96H200V100H196V96Z" fill="white"/>
<path d="M200 96H204V100H200V96Z" fill="white"/>
<path d="M280 96H284V100H280V96Z" fill="white"/>
<path d="M284 96H288V100H284V96Z" fill="white"/>
<path d="M348 96H352V100H348V96Z" fill="white"/>
<path d="M352 96H356V100H352V96Z" fill="white"/>
<path d="M356 96H360V100H356V96Z" fill="white"/>
<path d="M360 96H364V100H360V96Z" fill="white"/>
<path d="M388 96H392V100H388V96Z" fill="white"/>
<path d="M392 96H396V100H392V96Z" fill="white"/>
<path d="M456 96H460V100H456V96Z" fill="white"/>
<path d="M460 96H464V100H460V96Z" fill="white"/>
<path d="M464 96H468V100H464V96Z" fill="white"/>
<path d="M496 96H500V100H496V96Z" fill="white"/>
<path d="M500 96H504V100H500V96Z" fill="white"/>
<path d="M504 96H508V100H504V96Z" fill="white"/>
<path d="M532 96H536V100H532V96Z" fill="white"/>
<path d="M536 96H540V100H536V96Z" fill="white"/>
<path d="M600 96H604V100H600V96Z" fill="white"/>
<path d="M604 96H608V100H604V96Z" fill="white"/>
<path d="M608 96H612V100H608V96Z" fill="white"/>
<path d="M8 100H12V104H8V100Z" fill="white"/>
<path d="M12 100H16V104H12V100Z" fill="white"/>
<path d="M16 100H20V104H16V100Z" fill="white"/>
<path d="M20 100H24V104H20V100Z" fill="white"/>
<path d="M24 100H28V104H24V100Z" fill="white"/>
<path d="M28 100H32V104H28V100Z" fill="white"/>
<path d="M32 100H36V104H32V100Z" fill="white"/>
<path d="M36 100H40V104H36V100Z" fill="white"/>
<path d="M40 100H44V104H40V100Z" fill="white"/>
<path d="M44 100H48V104H44V100Z" fill="white"/>
<path d="M76 100H80V104H76V100Z" fill="white"/>
<path d="M80 100H84V104H80V100Z" fill="white"/>
<path d="M84 100H88V104H84V100Z" fill="white"/>
<path d="M88 100H92V104H88V100Z" fill="white"/>
<path d="M92 100H96V104H92V100Z" fill="white"/>
<path d="M96 100H100V104H96V100Z" fill="white"/>
<path d="M100 100H104V104H100V100Z" fill="white"/>
<path d="M104 100H108V104H104V100Z" fill="white"/>
<path d="M108 100H112V104H108V100Z" fill="white"/>
<path d="M112 100H116V104H112V100Z" fill="white"/>
<path d="M116 100H120V104H116V100Z" fill="white"/>
<path d="M120 100H124V104H120V100Z" fill="white"/>
<path d="M144 100H148V104H144V100Z" fill="white"/>
<path d="M148 100H152V104H148V100Z" fill="white"/>
<path d="M196 100H200V104H196V100Z" fill="white"/>
<path d="M200 100H204V104H200V100Z" fill="white"/>
<path d="M280 100H284V104H280V100Z" fill="white"/>
<path d="M284 100H288V104H284V100Z" fill="white"/>
<path d="M288 100H292V104H288V100Z" fill="white"/>
<path d="M344 100H348V104H344V100Z" fill="white"/>
<path d="M348 100H352V104H348V100Z" fill="white"/>
<path d="M352 100H356V104H352V100Z" fill="white"/>
<path d="M356 100H360V104H356V100Z" fill="white"/>
<path d="M360 100H364V104H360V100Z" fill="white"/>
<path d="M388 100H392V104H388V100Z" fill="white"/>
<path d="M392 100H396V104H392V100Z" fill="white"/>
<path d="M396 100H400V104H396V100Z" fill="white"/>
<path d="M452 100H456V104H452V100Z" fill="white"/>
<path d="M456 100H460V104H456V100Z" fill="white"/>
<path d="M460 100H464V104H460V100Z" fill="white"/>
<path d="M464 100H468V104H464V100Z" fill="white"/>
<path d="M496 100H500V104H496V100Z" fill="white"/>
<path d="M500 100H504V104H500V100Z" fill="white"/>
<path d="M504 100H508V104H504V100Z" fill="white"/>
<path d="M532 100H536V104H532V100Z" fill="white"/>
<path d="M536 100H540V104H536V100Z" fill="white"/>
<path d="M540 100H544V104H540V100Z" fill="white"/>
<path d="M596 100H600V104H596V100Z" fill="white"/>
<path d="M600 100H604V104H600V100Z" fill="white"/>
<path d="M604 100H608V104H604V100Z" fill="white"/>
<path d="M608 100H612V104H608V100Z" fill="white"/>
<path d="M8 104H12V108H8V104Z" fill="white"/>
<path d="M12 104H16V108H12V104Z" fill="white"/>
<path d="M16 104H20V108H16V104Z" fill="white"/>
<path d="M20 104H24V108H20V104Z" fill="white"/>
<path d="M24 104H28V108H24V104Z" fill="white"/>
<path d="M28 104H32V108H28V104Z" fill="white"/>
<path d="M92 104H96V108H92V104Z" fill="white"/>
<path d="M96 104H100V108H96V104Z" fill="white"/>
<path d="M100 104H104V108H100V104Z" fill="white"/>
<path d="M104 104H108V108H104V104Z" fill="white"/>
<path d="M108 104H112V108H108V104Z" fill="white"/>
<path d="M112 104H116V108H112V104Z" fill="white"/>
<path d="M116 104H120V108H116V104Z" fill="white"/>
<path d="M120 104H124V108H120V104Z" fill="white"/>
<path d="M144 104H148V108H144V104Z" fill="white"/>
<path d="M148 104H152V108H148V104Z" fill="white"/>
<path d="M196 104H200V108H196V104Z" fill="white"/>
<path d="M200 104H204V108H200V104Z" fill="white"/>
<path d="M204 104H208V108H204V104Z" fill="white"/>
<path d="M284 104H288V108H284V104Z" fill="white"/>
<path d="M288 104H292V108H288V104Z" fill="white"/>
<path d="M292 104H296V108H292V104Z" fill="white"/>
<path d="M344 104H348V108H344V104Z" fill="white"/>
<path d="M348 104H352V108H348V104Z" fill="white"/>
<path d="M352 104H356V108H352V104Z" fill="white"/>
<path d="M356 104H360V108H356V104Z" fill="white"/>
<path d="M360 104H364V108H360V104Z" fill="white"/>
<path d="M392 104H396V108H392V104Z" fill="white"/>
<path d="M396 104H400V108H396V104Z" fill="white"/>
<path d="M400 104H404V108H400V104Z" fill="white"/>
<path d="M448 104H452V108H448V104Z" fill="white"/>
<path d="M452 104H456V108H452V104Z" fill="white"/>
<path d="M456 104H460V108H456V104Z" fill="white"/>
<path d="M460 104H464V108H460V104Z" fill="white"/>
<path d="M464 104H468V108H464V104Z" fill="white"/>
<path d="M496 104H500V108H496V104Z" fill="white"/>
<path d="M500 104H504V108H500V104Z" fill="white"/>
<path d="M504 104H508V108H504V104Z" fill="white"/>
<path d="M536 104H540V108H536V104Z" fill="white"/>
<path d="M540 104H544V108H540V104Z" fill="white"/>
<path d="M544 104H548V108H544V104Z" fill="white"/>
<path d="M596 104H600V108H596V104Z" fill="white"/>
<path d="M600 104H604V108H600V104Z" fill="white"/>
<path d="M604 104H608V108H604V104Z" fill="white"/>
<path d="M608 104H612V108H608V104Z" fill="white"/>
<path d="M4 108H8V112H4V108Z" fill="white"/>
<path d="M8 108H12V112H8V108Z" fill="white"/>
<path d="M12 108H16V112H12V108Z" fill="white"/>
<path d="M16 108H20V112H16V108Z" fill="white"/>
<path d="M20 108H24V112H20V108Z" fill="white"/>
<path d="M100 108H104V112H100V108Z" fill="white"/>
<path d="M104 108H108V112H104V108Z" fill="white"/>
<path d="M108 108H112V112H108V108Z" fill="white"/>
<path d="M112 108H116V112H112V108Z" fill="white"/>
<path d="M116 108H120V112H116V108Z" fill="white"/>
<path d="M120 108H124V112H120V108Z" fill="white"/>
<path d="M124 108H128V112H124V108Z" fill="white"/>
<path d="M144 108H148V112H144V108Z" fill="white"/>
<path d="M148 108H152V112H148V108Z" fill="white"/>
<path d="M200 108H204V112H200V108Z" fill="white"/>
<path d="M204 108H208V112H204V108Z" fill="white"/>
<path d="M208 108H212V112H208V108Z" fill="white"/>
<path d="M212 108H216V112H212V108Z" fill="white"/>
<path d="M256 108H260V112H256V108Z" fill="white"/>
<path d="M260 108H264V112H260V108Z" fill="white"/>
<path d="M288 108H292V112H288V108Z" fill="white"/>
<path d="M292 108H296V112H292V108Z" fill="white"/>
<path d="M296 108H300V112H296V108Z" fill="white"/>
<path d="M336 108H340V112H336V108Z" fill="white"/>
<path d="M340 108H344V112H340V108Z" fill="white"/>
<path d="M344 108H348V112H344V108Z" fill="white"/>
<path d="M352 108H356V112H352V108Z" fill="white"/>
<path d="M356 108H360V112H356V108Z" fill="white"/>
<path d="M360 108H364V112H360V108Z" fill="white"/>
<path d="M396 108H400V112H396V108Z" fill="white"/>
<path d="M400 108H404V112H400V108Z" fill="white"/>
<path d="M404 108H408V112H404V108Z" fill="white"/>
<path d="M444 108H448V112H444V108Z" fill="white"/>
<path d="M448 108H452V112H448V108Z" fill="white"/>
<path d="M452 108H456V112H452V108Z" fill="white"/>
<path d="M460 108H464V112H460V108Z" fill="white"/>
<path d="M464 108H468V112H464V108Z" fill="white"/>
<path d="M496 108H500V112H496V108Z" fill="white"/>
<path d="M500 108H504V112H500V108Z" fill="white"/>
<path d="M504 108H508V112H504V108Z" fill="white"/>
<path d="M540 108H544V112H540V108Z" fill="white"/>
<path d="M544 108H548V112H544V108Z" fill="white"/>
<path d="M548 108H552V112H548V108Z" fill="white"/>
<path d="M588 108H592V112H588V108Z" fill="white"/>
<path d="M592 108H596V112H592V108Z" fill="white"/>
<path d="M596 108H600V112H596V108Z" fill="white"/>
<path d="M604 108H608V112H604V108Z" fill="white"/>
<path d="M608 108H612V112H608V108Z" fill="white"/>
<path d="M0 112H4V116H0V112Z" fill="white"/>
<path d="M4 112H8V116H4V112Z" fill="white"/>
<path d="M8 112H12V116H8V112Z" fill="white"/>
<path d="M12 112H16V116H12V112Z" fill="white"/>
<path d="M16 112H20V116H16V112Z" fill="white"/>
<path d="M108 112H112V116H108V112Z" fill="white"/>
<path d="M112 112H116V116H112V112Z" fill="white"/>
<path d="M116 112H120V116H116V112Z" fill="white"/>
<path d="M120 112H124V116H120V112Z" fill="white"/>
<path d="M124 112H128V116H124V112Z" fill="white"/>
<path d="M144 112H148V116H144V112Z" fill="white"/>
<path d="M148 112H152V116H148V112Z" fill="white"/>
<path d="M204 112H208V116H204V112Z" fill="white"/>
<path d="M208 112H212V116H208V112Z" fill="white"/>
<path d="M212 112H216V116H212V112Z" fill="white"/>
<path d="M216 112H220V116H216V112Z" fill="white"/>
<path d="M220 112H224V116H220V112Z" fill="white"/>
<path d="M244 112H248V116H244V112Z" fill="white"/>
<path d="M248 112H252V116H248V112Z" fill="white"/>
<path d="M252 112H256V116H252V112Z" fill="white"/>
<path d="M256 112H260V116H256V112Z" fill="white"/>
<path d="M260 112H264V116H260V112Z" fill="white"/>
<path d="M292 112H296V116H292V112Z" fill="white"/>
<path d="M296 112H300V116H296V112Z" fill="white"/>
<path d="M300 112H304V116H300V112Z" fill="white"/>
<path d="M304 112H308V116H304V112Z" fill="white"/>
<path d="M308 112H312V116H308V112Z" fill="white"/>
<path d="M328 112H332V116H328V112Z" fill="white"/>
<path d="M332 112H336V116H332V112Z" fill="white"/>
<path d="M336 112H340V116H336V112Z" fill="white"/>
<path d="M340 112H344V116H340V112Z" fill="white"/>
<path d="M352 112H356V116H352V112Z" fill="white"/>
<path d="M356 112H360V116H356V112Z" fill="white"/>
<path d="M360 112H364V116H360V112Z" fill="white"/>
<path d="M400 112H404V116H400V112Z" fill="white"/>
<path d="M404 112H408V116H404V112Z" fill="white"/>
<path d="M408 112H412V116H408V112Z" fill="white"/>
<path d="M412 112H416V116H412V112Z" fill="white"/>
<path d="M416 112H420V116H416V112Z" fill="white"/>
<path d="M432 112H436V116H432V112Z" fill="white"/>
<path d="M436 112H440V116H436V112Z" fill="white"/>
<path d="M440 112H444V116H440V112Z" fill="white"/>
<path d="M444 112H448V116H444V112Z" fill="white"/>
<path d="M448 112H452V116H448V112Z" fill="white"/>
<path d="M460 112H464V116H460V112Z" fill="white"/>
<path d="M464 112H468V116H464V112Z" fill="white"/>
<path d="M496 112H500V116H496V112Z" fill="white"/>
<path d="M500 112H504V116H500V112Z" fill="white"/>
<path d="M504 112H508V116H504V112Z" fill="white"/>
<path d="M544 112H548V116H544V112Z" fill="white"/>
<path d="M548 112H552V116H548V112Z" fill="white"/>
<path d="M552 112H556V116H552V112Z" fill="white"/>
<path d="M556 112H560V116H556V112Z" fill="white"/>
<path d="M560 112H564V116H560V112Z" fill="white"/>
<path d="M580 112H584V116H580V112Z" fill="white"/>
<path d="M584 112H588V116H584V112Z" fill="white"/>
<path d="M588 112H592V116H588V112Z" fill="white"/>
<path d="M592 112H596V116H592V112Z" fill="white"/>
<path d="M604 112H608V116H604V112Z" fill="white"/>
<path d="M608 112H612V116H608V112Z" fill="white"/>
<path d="M0 116H4V120H0V116Z" fill="white"/>
<path d="M4 116H8V120H4V116Z" fill="white"/>
<path d="M8 116H12V120H8V116Z" fill="white"/>
<path d="M12 116H16V120H12V116Z" fill="white"/>
<path d="M112 116H116V120H112V116Z" fill="white"/>
<path d="M116 116H120V120H116V116Z" fill="white"/>
<path d="M120 116H124V120H120V116Z" fill="white"/>
<path d="M124 116H128V120H124V116Z" fill="white"/>
<path d="M128 116H132V120H128V116Z" fill="white"/>
<path d="M144 116H148V120H144V116Z" fill="white"/>
<path d="M148 116H152V120H148V116Z" fill="white"/>
<path d="M212 116H216V120H212V116Z" fill="white"/>
<path d="M216 116H220V120H216V116Z" fill="white"/>
<path d="M220 116H224V120H220V116Z" fill="white"/>
<path d="M224 116H228V120H224V116Z" fill="white"/>
<path d="M228 116H232V120H228V116Z" fill="white"/>
<path d="M232 116H236V120H232V116Z" fill="white"/>
<path d="M236 116H240V120H236V116Z" fill="white"/>
<path d="M240 116H244V120H240V116Z" fill="white"/>
<path d="M244 116H248V120H244V116Z" fill="white"/>
<path d="M248 116H252V120H248V116Z" fill="white"/>
<path d="M252 116H256V120H252V116Z" fill="white"/>
<path d="M296 116H300V120H296V116Z" fill="white"/>
<path d="M300 116H304V120H300V116Z" fill="white"/>
<path d="M304 116H308V120H304V116Z" fill="white"/>
<path d="M308 116H312V120H308V116Z" fill="white"/>
<path d="M312 116H316V120H312V116Z" fill="white"/>
<path d="M316 116H320V120H316V116Z" fill="white"/>
<path d="M320 116H324V120H320V116Z" fill="white"/>
<path d="M324 116H328V120H324V116Z" fill="white"/>
<path d="M328 116H332V120H328V116Z" fill="white"/>
<path d="M332 116H336V120H332V116Z" fill="white"/>
<path d="M336 116H340V120H336V116Z" fill="white"/>
<path d="M352 116H356V120H352V116Z" fill="white"/>
<path d="M356 116H360V120H356V116Z" fill="white"/>
<path d="M360 116H364V120H360V116Z" fill="white"/>
<path d="M404 116H408V120H404V116Z" fill="white"/>
<path d="M408 116H412V120H408V116Z" fill="white"/>
<path d="M412 116H416V120H412V116Z" fill="white"/>
<path d="M416 116H420V120H416V116Z" fill="white"/>
<path d="M420 116H424V120H420V116Z" fill="white"/>
<path d="M424 116H428V120H424V116Z" fill="white"/>
<path d="M428 116H432V120H428V116Z" fill="white"/>
<path d="M432 116H436V120H432V116Z" fill="white"/>
<path d="M436 116H440V120H436V116Z" fill="white"/>
<path d="M440 116H444V120H440V116Z" fill="white"/>
<path d="M460 116H464V120H460V116Z" fill="white"/>
<path d="M464 116H468V120H464V116Z" fill="white"/>
<path d="M496 116H500V120H496V116Z" fill="white"/>
<path d="M500 116H504V120H500V116Z" fill="white"/>
<path d="M504 116H508V120H504V116Z" fill="white"/>
<path d="M548 116H552V120H548V116Z" fill="white"/>
<path d="M552 116H556V120H552V116Z" fill="white"/>
<path d="M556 116H560V120H556V116Z" fill="white"/>
<path d="M560 116H564V120H560V116Z" fill="white"/>
<path d="M564 116H568V120H564V116Z" fill="white"/>
<path d="M568 116H572V120H568V116Z" fill="white"/>
<path d="M572 116H576V120H572V116Z" fill="white"/>
<path d="M576 116H580V120H576V116Z" fill="white"/>
<path d="M580 116H584V120H580V116Z" fill="white"/>
<path d="M584 116H588V120H584V116Z" fill="white"/>
<path d="M588 116H592V120H588V116Z" fill="white"/>
<path d="M604 116H608V120H604V116Z" fill="white"/>
<path d="M608 116H612V120H608V116Z" fill="white"/>
<path d="M224 120H228V124H224V120Z" fill="white"/>
<path d="M228 120H232V124H228V120Z" fill="white"/>
<path d="M232 120H236V124H232V120Z" fill="white"/>
<path d="M236 120H240V124H236V120Z" fill="white"/>
<path d="M240 120H244V124H240V120Z" fill="white"/>
<path d="M244 120H248V124H244V120Z" fill="white"/>
<path d="M308 120H312V124H308V120Z" fill="white"/>
<path d="M312 120H316V124H312V120Z" fill="white"/>
<path d="M316 120H320V124H316V120Z" fill="white"/>
<path d="M320 120H324V124H320V120Z" fill="white"/>
<path d="M324 120H328V124H324V120Z" fill="white"/>
<path d="M416 120H420V124H416V120Z" fill="white"/>
<path d="M420 120H424V124H420V120Z" fill="white"/>
<path d="M424 120H428V124H424V120Z" fill="white"/>
<path d="M428 120H432V124H428V120Z" fill="white"/>
<path d="M432 120H436V124H432V120Z" fill="white"/>
<path d="M560 120H564V124H560V120Z" fill="white"/>
<path d="M564 120H568V124H564V120Z" fill="white"/>
<path d="M568 120H572V124H568V120Z" fill="white"/>
<path d="M572 120H576V124H572V120Z" fill="white"/>
<path d="M576 120H580V124H576V120Z" fill="white"/>
</svg>
