<?xml version="1.0" encoding="UTF-8"?>
<svg id="a" data-name="Layer 1" xmlns="http://www.w3.org/2000/svg" viewBox="0 0 42.29 48">
  <defs>
    <style>
      .b {
        fill: #ffbd11;
      }

      .c {
        fill: #ffcf2d;
      }
    </style>
  </defs>
  <g>
    <path class="c" d="m41.77,6.86v-1.14h-.62v-1.14h-6.86V0H8v4.57H1.14v1.14h-.52v1.14h-.62v2.29h.62v1.14h.52v2.29h1.14v-2.29h-.52v-1.14h-.62v-2.29h.62v-1.14h6.23v5.71h1.14v1.14s0,1.14,0,1.14v4.57h-1.14v1.14h1.14v1.14s0,1.14,0,1.14h1.14v2.29h1.14v1.14h1.14v1.14s1.14,0,1.14,0v1.14h1.14v1.14h3.43v1.14h1.14v1.14s0,1.14,0,1.14v8h-1.14v1.14h-1.14v1.14h-1.14v1.14h-1.14v1.14h-2.29v1.14h-1.14v1.14h1.14v1.14s1.14,0,1.14,0h16v-1.14h1.14v-1.14h-1.14v-1.14h-2.29v-1.14h-1.14v-1.14h-1.14v-1.14h-1.14v-1.14h-1.14v-10.29h1.14v-1.14h3.43v-1.14h1.14v-1.14h1.14v-1.14h1.14v-1.14h1.14v-2.29h1.14v-2.29h1.14v-1.14h-1.14v-4.57h1.14v-6.86h0v-1.14h6.34v1.14h.52v3.43h-.62v1.14h-.52v1.14h-.52v1.14h-.62v1.14h1.14v-1.14h.62v-1.14h.52v-1.14h.52v-1.14h.62v-3.43h-.52Z"/>
    <polygon class="c" points="3.43 12.57 2.29 12.57 2.29 13.71 2.29 14.86 3.43 14.86 3.43 13.71 3.43 12.57"/>
    <rect class="c" x="3.43" y="14.86" width="1.14" height="1.14"/>
    <rect class="c" x="37.71" y="14.86" width="1.14" height="1.14"/>
    <rect class="c" x="36.57" y="16" width="1.14" height="1.14"/>
    <polygon class="c" points="6.86 17.14 6.86 16.62 5.71 16.62 5.71 16 4.57 16 4.57 17.14 5.71 17.14 5.71 17.77 6.86 17.77 6.86 18.29 8 18.29 8 17.14 6.86 17.14"/>
    <polygon class="c" points="34.29 17.14 34.29 18.29 35.43 18.29 36.57 18.29 36.57 17.14 35.43 17.14 34.29 17.14"/>
  </g>
  <polygon class="b" points="25.14 11.43 24 11.43 22.86 11.43 22.86 10.29 21.71 10.29 21.71 9.14 21.71 8 20.57 8 20.57 9.14 20.57 10.29 19.43 10.29 19.43 11.43 18.29 11.43 17.14 11.43 16 11.43 16 12.57 17.14 12.57 17.14 13.71 18.29 13.71 18.29 14.86 18.29 16 18.29 17.14 18.29 18.29 19.43 18.29 19.43 17.14 20.57 17.14 20.57 16 21.71 16 21.71 17.14 22.86 17.14 22.86 18.29 24 18.29 24 17.14 24 16 24 14.86 24 13.71 25.14 13.71 25.14 12.57 26.29 12.57 26.29 11.43 25.14 11.43"/>
  <polygon class="b" points="33.14 6.86 33.14 8 33.14 9.14 33.14 10.29 33.14 11.43 33.14 12.57 32 12.57 32 13.71 32 14.86 32 16 30.86 16 30.86 17.14 30.86 18.29 30.86 19.43 29.71 19.43 29.71 20.57 29.71 21.71 28.57 21.71 28.57 22.86 27.43 22.86 27.43 24 26.29 24 26.29 25.14 25.14 25.14 25.14 26.29 24 26.29 22.86 26.29 22.86 27.43 21.71 27.43 20.57 27.43 19.43 27.43 18.29 27.43 17.14 27.43 16 27.43 14.86 27.43 14.86 28.57 16 28.57 17.14 28.57 18.29 28.57 18.29 29.71 19.43 29.71 20.57 29.71 21.71 29.71 22.86 29.71 24 29.71 24 28.57 25.14 28.57 26.29 28.57 27.43 28.57 27.43 27.43 28.57 27.43 28.57 26.29 29.71 26.29 29.71 25.14 30.86 25.14 30.86 24 32 24 32 22.86 32 21.71 33.14 21.71 33.14 20.57 33.14 19.43 33.14 18.29 33.14 17.14 33.14 16 33.14 14.86 33.14 13.71 34.29 13.71 34.29 12.57 34.29 11.43 34.29 10.29 34.29 9.14 34.29 8 34.29 6.86 33.14 6.86"/>
</svg>