<svg width="36" height="36" viewBox="0 0 36 36" fill="none" xmlns="http://www.w3.org/2000/svg">
<path d="M28.8 4.79999H7.20005C5.87405 4.79999 4.80005 5.87399 4.80005 7.19999V28.8C4.80005 30.126 5.87405 31.2 7.20005 31.2H19.2V20.4H15.6V16.8H19.2V14.8668C19.2 11.2068 20.9832 9.59999 24.0252 9.59999C25.482 9.59999 26.2524 9.70799 26.6172 9.75719V13.2H24.5424C23.2512 13.2 22.8 13.8816 22.8 15.2616V16.8H26.5848L26.0712 20.4H22.8V31.2H28.8C30.126 31.2 31.2 30.126 31.2 28.8V7.19999C31.2 5.87399 30.1248 4.79999 28.8 4.79999Z" fill="white"/>
</svg>
