<svg width="163" height="32" viewBox="0 0 163 32" fill="none" xmlns="http://www.w3.org/2000/svg">
<path d="M31.3417 31.2638C27.3446 27.8718 22.1828 26.0049 16.7827 26.0049C13.0238 26.0049 9.31782 26.9252 6.06187 28.6606L4.3942 25.5579C8.15309 23.5596 12.4414 22.5078 16.7827 22.5078C23.0298 22.5078 29.0123 24.6902 33.6447 28.6343L31.3417 31.2638Z" fill="white"/>
<path d="M40.7654 15.5661C41.7184 11.9638 43.9949 9.38702 47.9391 9.38702C48.4685 9.38702 49.0774 9.4659 49.5274 9.57107V11.5694C49.0509 11.3854 48.3097 11.3065 47.8597 11.3065C42.989 11.3065 40.8449 16.355 40.7654 23.1389V31.4478H38.7536V9.86031H40.7654V15.5661Z" fill="white"/>
<path d="M62.8688 9.38702C64.5894 9.38702 67.5542 9.83402 70.413 11.8324L69.4072 13.2786C66.9189 11.4643 64.3247 11.2013 62.9217 11.2013C56.5157 11.2013 52.7304 15.3295 52.6245 20.6935C52.7568 26.0312 56.5157 30.1857 62.9217 30.1857C64.3247 30.1857 66.9189 29.8702 69.4072 28.1085L70.413 29.5546C67.5542 31.553 64.5894 32 62.8688 32C55.0863 32 50.6921 27.0304 50.5597 20.825C50.5862 14.4355 55.0069 9.38702 62.8688 9.38702Z" fill="white"/>
<path d="M94.1841 26.0049C92.5958 29.5283 89.0487 31.9211 84.7604 31.9211C78.1161 31.9211 73.5896 26.9252 73.5896 20.6146C73.5896 14.4881 77.8779 9.38702 84.7868 9.38702C89.1546 9.38702 92.6223 11.7798 94.1576 15.2506V9.86031H96.1694V31.4478H94.1576V26.0049H94.1841ZM94.237 20.6146C94.237 15.4347 90.4781 11.175 84.8133 11.175C79.1485 11.175 75.6543 15.4347 75.6543 20.6146C75.6543 25.926 79.3338 30.1331 84.8398 30.1331C90.2928 30.1331 94.237 25.926 94.237 20.6146Z" fill="white"/>
<path d="M122.561 26.0049C120.973 29.5283 117.426 31.9211 113.137 31.9211C106.493 31.9211 101.967 26.9252 101.967 20.6146C101.967 14.4881 106.255 9.38702 113.164 9.38702C117.532 9.38702 120.999 11.7798 122.535 15.2506V0H124.546V31.4478H122.535V26.0049H122.561ZM122.614 20.6146C122.614 15.4347 118.855 11.175 113.19 11.175C107.552 11.175 104.031 15.4347 104.031 20.6146C104.031 25.926 107.711 30.1331 113.217 30.1331C118.67 30.1331 122.614 25.926 122.614 20.6146Z" fill="white"/>
<path d="M133.255 0.525883C134.182 0.525883 134.844 1.20953 134.844 2.2613C134.844 3.31306 134.182 3.99671 133.255 3.99671C132.329 3.99671 131.667 3.31306 131.667 2.2613C131.667 1.20953 132.329 0.525883 133.255 0.525883ZM134.288 31.4478H132.276V9.86031H134.288V31.4478Z" fill="white"/>
<path d="M160.838 26.0049C159.25 29.5283 155.703 31.9211 151.415 31.9211C144.77 31.9211 140.244 26.9252 140.244 20.6146C140.244 14.4881 144.532 9.38702 151.441 9.38702C155.809 9.38702 159.276 11.7798 160.812 15.2506V9.86031H162.824V31.4478H160.812V26.0049H160.838ZM160.891 20.6146C160.891 15.4347 157.132 11.175 151.467 11.175C145.829 11.175 142.308 15.4347 142.308 20.6146C142.308 25.926 145.988 30.1331 151.494 30.1331C156.947 30.1331 160.891 25.926 160.891 20.6146Z" fill="white"/>
<path d="M4.23537 31.3689L18.6621 9.30813L31.4741 31.3689H35.5771L18.8209 2.57683L0 31.3689H4.23537Z" fill="white"/>
</svg>
