<?xml version="1.0" encoding="UTF-8"?>
<svg id="a" data-name="Layer 1" xmlns="http://www.w3.org/2000/svg" viewBox="0 0 510.48 65.58">
  <defs>
    <style>
      .b {
        fill: #fcf28a;
      }
    </style>
  </defs>
  <polygon class="b" points="222.55 64.48 239.65 64.48 239.65 39.58 251.88 39.58 251.88 25.27 239.65 25.27 239.65 16.04 252.78 16.04 252.78 1.15 222.55 1.15 222.55 64.48"/>
  <polygon class="b" points="179.36 1.15 162.26 1.15 162.26 64.48 192.2 64.48 192.2 49.26 179.36 49.26 179.36 1.15"/>
  <polygon class="b" points="123.13 64.48 154.92 64.48 154.92 49.26 140.23 49.26 140.23 39.58 153.4 39.58 153.4 25.27 140.23 25.27 140.23 16.04 154.92 16.04 154.92 1.15 123.13 1.15 123.13 64.48"/>
  <path class="b" d="m117.55,1.15h-19.15l-2.62,8.65c-.46,1.48-1.04,3.58-1.72,6.32-.3-1.34-.6-2.54-.9-3.61-.27-1.07-.56-2-.86-2.79l-2.83-8.57h-19.03l14.52,30.47-15.38,32.85h18.62l3.16-8.33c1.2-3.25,2.11-6.14,2.71-8.65.63,2.54,1.45,5.2,2.46,7.96l3.16,9.02h18.99l-15.54-32.85L117.55,1.15Z"/>
  <rect class="b" x="47.99" y="1.15" width="17.1" height="63.33"/>
  <path class="b" d="m34.95,6.19c-3.99-3.36-10.12-5.04-18.38-5.04H0v63.33h17.1v-20.75h2.67c6.4,0,11.31-1.27,14.72-3.81,5-3.77,7.51-9.5,7.51-17.19,0-7.05-2.35-12.56-7.05-16.53Zm-12.1,21.45c-1.23,1.26-2.88,1.89-4.96,1.89l-.78-.04v-14.52h1.19c1.86,0,3.39.7,4.59,2.09,1.2,1.37,1.8,3.14,1.8,5.33s-.62,3.96-1.85,5.25Z"/>
  <rect class="b" x="259.46" y="1.15" width="17.1" height="63.33"/>
  <polygon class="b" points="385.55 16.32 394.98 16.32 394.98 64.48 412.08 64.48 412.08 16.32 421.89 16.32 421.89 1.15 385.55 1.15 385.55 16.32"/>
  <path class="b" d="m497.77,38.14c6.54-2.93,9.8-8.22,9.8-15.87,0-7.16-2.43-12.69-7.3-16.57-3.83-3.04-9.6-4.55-17.31-4.55h-17.51v63.33h17.02v-22.15l-.12-4.18c.3.88.55,1.63.74,2.26.22.63.37,1.13.45,1.52l8.45,22.56h18.5l-12.72-26.33Zm-9.15-9.93c-1.31,1.5-2.95,2.26-4.92,2.26h-1.15v-15.09h.61c4.95,0,7.42,2.37,7.42,7.1,0,2.32-.66,4.24-1.97,5.74Z"/>
  <polygon class="b" points="426.32 64.48 458.1 64.48 458.1 49.26 443.42 49.26 443.42 39.58 456.59 39.58 456.59 25.27 443.42 25.27 443.42 16.04 458.1 16.04 458.1 1.15 426.32 1.15 426.32 64.48"/>
  <path class="b" d="m307.49,41.18h6.32c0,1.39-.15,2.67-.45,3.81-.27,1.12-.67,2.08-1.19,2.87-.49.79-1.11,1.41-1.84,1.85-.74.44-1.56.66-2.46.66-2.27,0-3.92-1.24-4.96-3.73s-1.56-6.48-1.56-11.98c0-12.93,2.35-19.4,7.06-19.4,1.34,0,2.45.59,3.32,1.76.9,1.15,1.48,2.72,1.72,4.72l16.57-6.07c-4.51-10.45-11.77-15.67-21.78-15.67-7.55,0-13.49,2.95-17.84,8.86-4.35,5.91-6.52,13.99-6.52,24.24s2.16,18.07,6.48,23.87c4.35,5.74,10.34,8.61,17.96,8.61s13.63-2.93,17.6-8.78c3.64-5.36,5.46-14.14,5.46-26.33v-2.62h-23.87v13.33Z"/>
  <polygon class="b" points="363.97 23.54 355.81 23.54 355.81 1.15 338.71 1.15 338.71 64.48 355.81 64.48 355.81 39.01 363.97 39.01 363.97 64.48 381.08 64.48 381.08 1.15 363.97 1.15 363.97 23.54"/>
</svg>