<svg width="36" height="36" viewBox="0 0 36 36" fill="none" xmlns="http://www.w3.org/2000/svg">
<path d="M11.9976 3.60001C7.36683 3.60001 3.59998 7.37035 3.59998 12.0023V24.0023C3.59998 28.6332 7.37032 32.4 12.0023 32.4H24.0023C28.6331 32.4 32.4 28.6297 32.4 23.9977V11.9977C32.4 7.36686 28.6296 3.60001 23.9976 3.60001H11.9976ZM26.4 8.40001C27.0624 8.40001 27.6 8.93761 27.6 9.60001C27.6 10.2624 27.0624 10.8 26.4 10.8C25.7376 10.8 25.2 10.2624 25.2 9.60001C25.2 8.93761 25.7376 8.40001 26.4 8.40001ZM18 10.8C21.9708 10.8 25.2 14.0292 25.2 18C25.2 21.9708 21.9708 25.2 18 25.2C14.0292 25.2 10.8 21.9708 10.8 18C10.8 14.0292 14.0292 10.8 18 10.8ZM18 13.2C16.7269 13.2 15.506 13.7057 14.6059 14.6059C13.7057 15.5061 13.2 16.727 13.2 18C13.2 19.273 13.7057 20.4939 14.6059 21.3941C15.506 22.2943 16.7269 22.8 18 22.8C19.273 22.8 20.4939 22.2943 21.3941 21.3941C22.2943 20.4939 22.8 19.273 22.8 18C22.8 16.727 22.2943 15.5061 21.3941 14.6059C20.4939 13.7057 19.273 13.2 18 13.2Z" fill="white"/>
</svg>
